<?xml version="1.0" encoding="utf-8"?>
<!-- Generator: Adobe Illustrator 25.0.1, SVG Export Plug-In . SVG Version: 6.00 Build 0)  -->
<svg version="1.1" id="Слой_1" xmlns="http://www.w3.org/2000/svg" xmlns:xlink="http://www.w3.org/1999/xlink" x="0px" y="0px"
	 viewBox="0 0 340.16 141.73" style="enable-background:new 0 0 340.16 141.73;" xml:space="preserve">
<style type="text/css">
	.st0{fill:#313131;}
	.st1{fill:#313131;fill-opacity:0;}
</style>
<g transform="translate(82.71499633789062,90.59778213521516)">
	<g transform="translate(0,0)">
		<g transform="translate(0, 5.123288913761968)">
			<g transform="scale(1)">
				<path class="st0" d="M-29.11-75.97H-54.5l-11.4,11.45v23.5l11.12,11.35h22.22v16.55h-18.44v-11.61h-14.9v15.11l11.4,11.4h25.39
					l11.4-11.4v-23.39l-4.06-3.94l0.05-0.05l-7.67-7.51h-21.61v-16.56h18.44v11.63h14.85v-15.06L-29.11-75.97z"/>
			</g>
		</g>
		<g transform="translate(31, 5.123288913761968)">
			<g transform="scale(1)">
				<path class="st0" d="M-9.28-61.09v47.95h-18.44v-47.95H-9.28z M-5.83-75.97h-25.39l-11.4,11.45v54.89l11.4,11.4h25.39l11.4-11.4
					v-54.89L-5.83-75.97z"/>
			</g>
		</g>
		<g transform="translate(62, 0)">
			<g>
				<g>
					<g>
						<rect x="-19.34" y="-79.82" class="st1" width="150.58" height="95.68"/>
						<g transform="matrix(.69 0 0 .69 15.5 15.5)">
							<path class="st0" d="M114.01,0.52h53.73l-60.41-108.53L64.15-74.65L114.01,0.52z M15.82-138.14L-50.5,0.52h157.83
								L15.82-138.14z"/>
						</g>
					</g>
				</g>
			</g>
		</g>
		<g transform="translate(152, 5.123288913761968)">
			<g transform="scale(1)">
				<path class="st0" d="M87.75-75.97H48.23V1.77h39.52v-14.9H63.13v-16.55h19.66v-14.85H63.13v-16.56h24.62V-75.97z"/>
			</g>
		</g>
	</g>
	<g transform="translate(67.67500305175781,60.648433685302734)">
		<g transform="scale(1, 1)">
			<g transform="scale(1)">
				<path class="st0" d="M-15.09-27.15c0,1.12,0.16,2.14,0.46,3.03c0.3,0.88,0.72,1.63,1.26,2.24s1.17,1.07,1.91,1.4
					C-10.73-20.16-9.92-20-9.05-20s1.66-0.18,2.35-0.53s1.31-0.84,1.86-1.47l-1-1.07c-0.44,0.49-0.91,0.88-1.42,1.14
					c-0.49,0.26-1.07,0.4-1.75,0.4c-0.65,0-1.24-0.14-1.77-0.4c-0.53-0.26-0.98-0.65-1.33-1.14c-0.37-0.49-0.65-1.09-0.86-1.77
					c-0.21-0.7-0.3-1.47-0.3-2.35c0-0.86,0.11-1.63,0.32-2.31c0.21-0.68,0.49-1.28,0.88-1.75c0.39-0.49,0.84-0.86,1.37-1.12
					c0.53-0.26,1.12-0.39,1.79-0.39c0.6,0,1.1,0.12,1.54,0.35s0.84,0.54,1.21,0.93l1-1.1c-0.42-0.46-0.93-0.86-1.56-1.19
					c-0.63-0.35-1.37-0.53-2.21-0.53c-0.89,0-1.7,0.18-2.45,0.51c-0.75,0.32-1.4,0.79-1.94,1.42c-0.54,0.61-0.98,1.37-1.28,2.24
					C-14.93-29.25-15.09-28.25-15.09-27.15z M-2.29-34.03v13.78h1.75v-6.5h6.41v6.5h1.77v-13.78H5.87v5.78h-6.41v-5.78H-2.29z
					 M17.27-25.85h-4.13l0.65-2.1c0.26-0.77,0.49-1.54,0.72-2.31c0.23-0.75,0.44-1.54,0.65-2.35h0.09c0.23,0.81,0.46,1.59,0.67,2.35
					c0.23,0.77,0.47,1.54,0.72,2.31L17.27-25.85z M17.72-24.45l1.3,4.2h1.87l-4.67-13.78h-1.96L9.58-20.25h1.79l1.33-4.2H17.72z
					 M24.58-27.5v-5.13h2.31c1.09,0,1.91,0.19,2.49,0.54c0.56,0.37,0.86,1.02,0.86,1.93c0,0.89-0.3,1.56-0.86,2
					c-0.58,0.44-1.4,0.67-2.49,0.67H24.58z M30.4-20.25h1.98l-3.48-6.01c0.95-0.25,1.68-0.68,2.24-1.33
					c0.56-0.65,0.84-1.51,0.84-2.57c0-0.72-0.11-1.33-0.35-1.82c-0.25-0.49-0.58-0.88-1-1.19c-0.42-0.32-0.95-0.53-1.54-0.67
					c-0.6-0.12-1.24-0.19-1.94-0.19h-4.31v13.78h1.75v-5.81h2.5L30.4-20.25z M37.49-32.56v12.31h1.77v-12.31h4.15v-1.47H33.32v1.47
					H37.49z M45.1-23.26l-1.05,1.23c0.61,0.63,1.33,1.12,2.15,1.49c0.82,0.37,1.72,0.54,2.68,0.54c0.74,0,1.38-0.09,1.96-0.3
					c0.58-0.21,1.07-0.49,1.47-0.84c0.4-0.35,0.72-0.77,0.93-1.24c0.23-0.49,0.33-1,0.33-1.54c0-0.51-0.07-0.95-0.23-1.33
					c-0.14-0.39-0.33-0.72-0.6-1.02c-0.25-0.28-0.54-0.54-0.89-0.75c-0.35-0.21-0.74-0.4-1.12-0.58l-1.96-0.84
					c-0.28-0.11-0.54-0.23-0.81-0.37c-0.28-0.14-0.53-0.28-0.74-0.46c-0.23-0.18-0.4-0.39-0.54-0.61c-0.14-0.23-0.19-0.53-0.19-0.86
					c0-0.63,0.23-1.12,0.7-1.47c0.47-0.37,1.09-0.54,1.86-0.54c0.65,0,1.23,0.12,1.73,0.35s0.98,0.54,1.4,0.95l0.95-1.12
					c-0.49-0.51-1.09-0.93-1.79-1.24c-0.7-0.32-1.47-0.47-2.29-0.47c-0.63,0-1.21,0.11-1.73,0.28c-0.53,0.18-0.98,0.44-1.37,0.77
					c-0.39,0.33-0.68,0.72-0.91,1.16c-0.21,0.46-0.32,0.95-0.32,1.45c0,0.51,0.09,0.95,0.25,1.33c0.18,0.39,0.39,0.72,0.65,1
					c0.28,0.28,0.58,0.53,0.91,0.72c0.33,0.19,0.67,0.37,0.98,0.51l1.98,0.86c0.33,0.16,0.63,0.3,0.91,0.44
					c0.28,0.14,0.53,0.3,0.72,0.47c0.21,0.18,0.37,0.39,0.49,0.63c0.12,0.25,0.18,0.54,0.18,0.89c0,0.68-0.25,1.23-0.75,1.63
					c-0.51,0.42-1.21,0.63-2.12,0.63c-0.72,0-1.42-0.16-2.08-0.47C46.17-22.31,45.59-22.73,45.1-23.26z"/>
			</g>
		</g>
	</g>
</g>
</svg>
